<svg xmlns="http://www.w3.org/2000/svg" xmlns:xlink="http://www.w3.org/1999/xlink" width="1366" zoomAndPan="magnify" viewBox="0 0 1024.5 576" height="768" preserveAspectRatio="xMidYMid meet" version="1.0"><defs><clipPath id="2cefc61c4c"><path d="M 0 0.140625 L 1024 0.140625 L 1024 575.859375 L 0 575.859375 Z M 0 0.140625 " clip-rule="nonzero"/></clipPath><clipPath id="fef8bf3b75"><path d="M 47 57 L 246 57 L 246 256 L 47 256 Z M 47 57 " clip-rule="nonzero"/></clipPath><clipPath id="b9b6f52386"><path d="M -75.839844 72.144531 L 245.285156 0.175781 L 317.253906 321.300781 L -3.871094 393.269531 Z M -75.839844 72.144531 " clip-rule="nonzero"/></clipPath><clipPath id="2a5d8e9470"><path d="M -75.839844 72.144531 L 245.285156 0.175781 L 317.253906 321.300781 L -3.871094 393.269531 Z M -75.839844 72.144531 " clip-rule="nonzero"/></clipPath><clipPath id="1f280b2768"><path d="M 0 25 L 278 25 L 278 387 L 0 387 Z M 0 25 " clip-rule="nonzero"/></clipPath><clipPath id="d774226bd9"><path d="M -75.839844 72.144531 L 245.285156 0.175781 L 317.253906 321.300781 L -3.871094 393.269531 Z M -75.839844 72.144531 " clip-rule="nonzero"/></clipPath><clipPath id="23fa620677"><path d="M -75.839844 72.144531 L 245.285156 0.175781 L 317.253906 321.300781 L -3.871094 393.269531 Z M -75.839844 72.144531 " clip-rule="nonzero"/></clipPath><clipPath id="15b0633b67"><path d="M -75.757812 72.511719 L 245.527344 0.507812 L 317.53125 321.789062 L -3.753906 393.792969 Z M -75.757812 72.511719 " clip-rule="nonzero"/></clipPath><clipPath id="ab92ed34ed"><path d="M -75.757812 72.511719 L 245.527344 0.507812 L 317.300781 320.761719 L -3.984375 392.765625 Z M -75.757812 72.511719 " clip-rule="nonzero"/></clipPath><clipPath id="b4eaf90227"><path d="M 79 116 L 219 116 L 219 199 L 79 199 Z M 79 116 " clip-rule="nonzero"/></clipPath><clipPath id="d4d0c2ce63"><path d="M -75.839844 72.144531 L 245.285156 0.175781 L 317.253906 321.300781 L -3.871094 393.269531 Z M -75.839844 72.144531 " clip-rule="nonzero"/></clipPath><clipPath id="16ebcd9308"><path d="M -75.839844 72.144531 L 245.285156 0.175781 L 317.253906 321.300781 L -3.871094 393.269531 Z M -75.839844 72.144531 " clip-rule="nonzero"/></clipPath><clipPath id="08a2bb07b5"><path d="M 862 66 L 997 66 L 997 223 L 862 223 Z M 862 66 " clip-rule="nonzero"/></clipPath><clipPath id="8a39518126"><path d="M 858.171875 36.558594 L 1040.820312 78.515625 L 1001.046875 251.667969 L 818.394531 209.710938 Z M 858.171875 36.558594 " clip-rule="nonzero"/></clipPath><clipPath id="90564cb3f6"><path d="M 858.171875 36.558594 L 1040.820312 78.515625 L 1001.046875 251.667969 L 818.394531 209.710938 Z M 858.171875 36.558594 " clip-rule="nonzero"/></clipPath><clipPath id="5f760f1c7b"><path d="M 899.929688 45.710938 L 998.882812 68.441406 L 959.003906 242.042969 L 860.050781 219.308594 Z M 899.929688 45.710938 " clip-rule="nonzero"/></clipPath><clipPath id="d390dca8a6"><path d="M 899.839844 46.109375 L 998.789062 68.839844 L 959.003906 242.042969 L 860.050781 219.308594 Z M 899.839844 46.109375 " clip-rule="nonzero"/></clipPath><clipPath id="d2adc8e0b4"><path d="M 845 56 L 927 56 L 927 138 L 845 138 Z M 845 56 " clip-rule="nonzero"/></clipPath><clipPath id="305c90d6b5"><path d="M 858.171875 36.558594 L 1040.820312 78.515625 L 1001.046875 251.667969 L 818.394531 209.710938 Z M 858.171875 36.558594 " clip-rule="nonzero"/></clipPath><clipPath id="fe713a5856"><path d="M 858.171875 36.558594 L 1040.820312 78.515625 L 1001.046875 251.667969 L 818.394531 209.710938 Z M 858.171875 36.558594 " clip-rule="nonzero"/></clipPath><clipPath id="442869fb5e"><path d="M 932 150 L 1015 150 L 1015 232 L 932 232 Z M 932 150 " clip-rule="nonzero"/></clipPath><clipPath id="9b79d2c523"><path d="M 858.171875 36.558594 L 1040.820312 78.515625 L 1001.046875 251.667969 L 818.394531 209.710938 Z M 858.171875 36.558594 " clip-rule="nonzero"/></clipPath><clipPath id="4d4a973013"><path d="M 858.171875 36.558594 L 1040.820312 78.515625 L 1001.046875 251.667969 L 818.394531 209.710938 Z M 858.171875 36.558594 " clip-rule="nonzero"/></clipPath></defs><g clip-path="url(#2cefc61c4c)"><path fill="#ffffff" d="M 0 0.140625 L 1024 0.140625 L 1024 575.859375 L 0 575.859375 Z M 0 0.140625 " fill-opacity="1" fill-rule="nonzero"/><path fill="#464a47" d="M 0 0.140625 L 1024 0.140625 L 1024 575.859375 L 0 575.859375 Z M 0 0.140625 " fill-opacity="1" fill-rule="nonzero"/></g><g clip-path="url(#fef8bf3b75)"><g clip-path="url(#b9b6f52386)"><g clip-path="url(#2a5d8e9470)"><path fill="#518476" d="M 126.082031 64.75 C 176.683594 53.410156 227.058594 85.316406 238.394531 135.886719 C 249.734375 186.488281 217.800781 236.871094 167.199219 248.210938 C 116.683594 259.53125 66.386719 227.578125 55.046875 176.976562 C 43.714844 126.40625 75.597656 76.066406 126.082031 64.75 Z M 168.332031 253.257812 C 221.726562 241.292969 255.4375 188.144531 243.46875 134.75 C 231.511719 81.382812 178.347656 47.734375 124.953125 59.703125 C 71.671875 71.640625 38.015625 124.777344 49.96875 178.117188 C 61.9375 231.511719 115.050781 265.199219 168.332031 253.257812 " fill-opacity="1" fill-rule="nonzero"/></g></g></g><g clip-path="url(#1f280b2768)"><g clip-path="url(#d774226bd9)"><g clip-path="url(#23fa620677)"><g clip-path="url(#15b0633b67)"><g clip-path="url(#ab92ed34ed)"><path fill="#518476" d="M 2.082031 344.4375 L 44.527344 277.46875 L 79.617188 299.710938 L 37.222656 366.636719 C 31.210938 376.042969 17.886719 379 8.503906 373.105469 C -1.160156 367 -4.101562 354.152344 2.082031 344.4375 Z M 50.332031 244.417969 C 65.683594 261.195312 85.175781 273.722656 106.785156 280.710938 L 96.019531 297.773438 L 39.316406 261.832031 Z M 120.355469 39.195312 C 185.046875 24.695312 249.457031 65.496094 263.949219 130.160156 C 278.441406 194.820312 237.609375 259.242188 172.921875 273.738281 C 108.316406 288.21875 43.953125 247.375 29.460938 182.710938 C 14.96875 118.050781 55.75 53.671875 120.355469 39.195312 Z M 2.957031 381.894531 C 17.527344 391.03125 36.679688 386.800781 45.992188 372.222656 L 88.410156 305.261719 L 94.835938 309.332031 C 97.242188 310.859375 100.472656 310.164062 101.992188 307.726562 L 117.207031 283.648438 C 135.730469 287.972656 155.457031 288.316406 175.195312 283.894531 C 245.476562 268.140625 289.820312 198.144531 274.074219 127.890625 C 258.332031 57.636719 188.367188 13.316406 118.085938 29.066406 C 47.890625 44.800781 3.570312 114.761719 19.308594 184.988281 C 23.609375 204.183594 32 221.445312 43.308594 236.074219 L 27.761719 260.675781 C 26.238281 263.085938 26.957031 266.308594 29.367188 267.835938 L 35.757812 271.886719 L -6.710938 338.890625 C -15.894531 353.378906 -11.636719 372.644531 2.957031 381.894531 " fill-opacity="1" fill-rule="nonzero"/></g></g></g></g></g><g clip-path="url(#b4eaf90227)"><g clip-path="url(#d4d0c2ce63)"><g clip-path="url(#16ebcd9308)"><path fill="#518476" d="M 121.695312 197.417969 C 122.332031 198.113281 123.296875 198.40625 124.207031 198.203125 C 125.320312 197.953125 126.183594 196.980469 126.21875 195.804688 L 129.308594 136.21875 L 157.480469 188.800781 C 158.011719 189.847656 159.179688 190.367188 160.320312 190.109375 C 161.460938 189.855469 162.292969 188.890625 162.328125 187.714844 L 165.527344 126.066406 L 188.421875 157.121094 C 189.027344 157.945312 190.074219 158.339844 191.074219 158.117188 L 216.144531 152.496094 C 217.542969 152.183594 218.425781 150.785156 218.113281 149.390625 C 217.800781 147.992188 216.402344 147.105469 215.007812 147.417969 L 191.617188 152.660156 L 165.414062 117.136719 C 164.765625 116.261719 163.683594 115.84375 162.5625 116.1875 C 161.527344 116.507812 160.78125 117.453125 160.726562 118.546875 L 157.632812 178.132812 L 129.492188 125.542969 C 128.9375 124.53125 127.765625 123.984375 126.625 124.242188 C 125.484375 124.496094 124.65625 125.488281 124.585938 126.644531 L 121.355469 189.347656 L 106.535156 173.078125 C 105.898438 172.378906 104.9375 172.085938 104.050781 172.285156 L 81.089844 177.433594 C 79.664062 177.75 78.808594 179.140625 79.121094 180.539062 C 79.433594 181.9375 80.800781 182.828125 82.226562 182.507812 L 103.707031 177.695312 L 121.695312 197.417969 " fill-opacity="1" fill-rule="nonzero"/></g></g></g><g clip-path="url(#08a2bb07b5)"><g clip-path="url(#8a39518126)"><g clip-path="url(#90564cb3f6)"><g clip-path="url(#5f760f1c7b)"><g clip-path="url(#d390dca8a6)"><path fill="#518476" d="M 992.546875 68.597656 C 988.019531 64.8125 981.277344 65.414062 977.488281 69.945312 L 865.023438 204.515625 C 861.238281 209.046875 861.84375 215.785156 866.371094 219.570312 C 867.707031 220.6875 869.234375 221.417969 870.824219 221.785156 C 874.617188 222.65625 878.753906 221.414062 881.425781 218.222656 L 993.890625 83.652344 C 997.675781 79.125 997.074219 72.382812 992.546875 68.597656 Z M 992.546875 68.597656 " fill-opacity="1" fill-rule="nonzero"/></g></g></g></g></g><g clip-path="url(#d2adc8e0b4)"><g clip-path="url(#305c90d6b5)"><g clip-path="url(#fe713a5856)"><path fill="#518476" d="M 925.394531 105.996094 C 930.402344 84.210938 916.75 62.421875 894.96875 57.417969 C 873.1875 52.414062 851.394531 66.0625 846.386719 87.847656 C 841.386719 109.628906 855.035156 131.421875 876.816406 136.425781 C 898.597656 141.429688 920.394531 127.777344 925.394531 105.996094 Z M 881.601562 115.59375 C 871.308594 113.230469 864.855469 102.925781 867.21875 92.632812 C 869.585938 82.335938 879.886719 75.886719 890.183594 78.25 C 900.476562 80.613281 906.929688 90.914062 904.566406 101.210938 C 902.199219 111.503906 891.898438 117.957031 881.601562 115.59375 Z M 881.601562 115.59375 " fill-opacity="1" fill-rule="nonzero"/></g></g></g><g clip-path="url(#442869fb5e)"><g clip-path="url(#9b79d2c523)"><g clip-path="url(#4d4a973013)"><path fill="#518476" d="M 982.570312 151.851562 C 960.789062 146.847656 938.992188 160.5 933.992188 182.28125 C 928.988281 204.0625 942.636719 225.855469 964.417969 230.859375 C 986.199219 235.863281 1007.996094 222.210938 1013 200.429688 C 1018.003906 178.644531 1004.351562 156.855469 982.570312 151.851562 Z M 969.207031 210.023438 C 958.910156 207.660156 952.457031 197.359375 954.824219 187.066406 C 957.1875 176.769531 967.488281 170.320312 977.785156 172.683594 C 988.078125 175.050781 994.53125 185.347656 992.167969 195.644531 C 989.800781 205.9375 979.5 212.390625 969.207031 210.023438 Z M 969.207031 210.023438 " fill-opacity="1" fill-rule="nonzero"/></g></g></g></svg>